<?xml version="1.0" encoding="utf-8"?>
<!-- Generator: Adobe Illustrator 18.1.1, SVG Export Plug-In . SVG Version: 6.00 Build 0)  -->
<svg version="1.1" id="Layer_1" xmlns="http://www.w3.org/2000/svg" xmlns:xlink="http://www.w3.org/1999/xlink" x="0px" y="0px"
	 viewBox="0 0 560 420" enable-background="new 0 0 560 420" xml:space="preserve">
<g>
	<defs>
		<rect id="SVGID_6_" width="560" height="420"/>
	</defs>
	<use xlink:href="#SVGID_6_"  overflow="visible" fill="#6D6E71"/>
	<clipPath id="SVGID_2_">
		<use xlink:href="#SVGID_6_"  overflow="visible"/>
	</clipPath>
	<path clip-path="url(#SVGID_2_)" fill="#FFFFFF" d="M85.5,213.5c-12.4-18.2-4.4-30.8,3.2-34.8c7.5-4,27.7-11.5,27.7-11.5
		s9.1,0.4,10.7,3.2c13.8-3.2,15-19,15-19s30.8-14.6,43.1-17.4c14.2-3.2,37.9-0.8,88.1,29.3c1.6,1.2,0,6.5-1.6,9.9
		c-1.6,3.5-13.4,14.2-13.4,14.2s-4.7,0.4-7.1-0.8c-11.1-5.5-31.6-11.1-39.9-9.5c0.8,7.1,2.8,19,4.4,20.6c1.6,1.6-0.9,2.8-0.9,2.8
		l9.4,12.7c0,0,1,4.1-0.7,6.5c3.4,4.2,36.1,48.5,36.1,48.5s5.1-4.6,8.7-1.2c3.6,3.4,12.7,17,12.7,17l11.6-16.6c0,0,4.4-2.9,9.2-0.1
		l36.5-47.4c0,0-2.2-3.3-1.3-4.5c0.9-1.2,14.6-19.2,12.6-38.9c-19-0.1-42.9,10.9-44.3,12.1c-1.3,1.2-2.1,0.5-5.4-2.2
		c-3.3-2.8-14-16.1-14-16.1s-2.8-2.8,4.4-7.4c7.1-4.6,51.5-32.4,79.7-29.9c11.3,2.8,46.4,16.5,46.4,16.5s8,16.3,17.3,22
		c3.6-3.2,9.4-5.3,15.1-2.6c5.8,2.6,24.4,9.6,24.4,9.6s14.9,12,4.2,34c-6.2,9.2-13.8,16.9-23.8,15.4c-10-1.5-31-12.5-31-12.5
		s-3.9-6.7-3.3-12c-14.8-3.2-30.8,8.4-38.3,18.1c-7.5,9.7-12.6,15-12.6,15s-1.2,2.8-3.6,2.4c-2.8,3.6-34,47.6-34,47.6
		s2.8,3.9,3.8,5.9c1,2-0.2,4.3-3,8.1c-2.8,3.8-16,24.1-16,24.1l100.6,131.2c0,0,5.3,6.5-26.3,28.1c-19.8,15-25.1,18-29.6,15.2
		c-4.5-2.8-79.8-119.4-79.8-119.4L203,498.1c0,0-4.9,9.3-39.9-18.8c-9.7-6.3-24.3-15.2-17.6-25.9c6.7-10.7,99.6-127.5,99.6-127.5
		l-18.6-30.2c0,0-1.4-3,3.6-8.5c-7.5-12.1-32-47.6-32.4-48.2c-0.4-0.6-2.6,0.4-3.8-1.4c-1.2-1.8-12.7-13.4-12.7-13.4
		s-0.4-1.8,0.2-2.6c-6.9-6.7-21.3-23.1-40.7-16.8c1.4,3.4-1.6,9.7-7.3,12.4c-5.7,2.8-25.5,10.7-25.5,10.7S98.1,232.1,85.5,213.5"/>
</g>
</svg>
